<svg width="184" height="54" viewBox="0 0 184 54" fill="none" xmlns="http://www.w3.org/2000/svg">
<g filter="url(#filter0_d_1_19)">
<path d="M45.3239 26.7102C45.2784 26.2519 45.0833 25.8958 44.7386 25.642C44.3939 25.3883 43.9261 25.2614 43.3352 25.2614C42.9337 25.2614 42.5947 25.3182 42.3182 25.4318C42.0417 25.5417 41.8295 25.6951 41.6818 25.892C41.5379 26.089 41.4659 26.3125 41.4659 26.5625C41.4583 26.7708 41.5019 26.9527 41.5966 27.108C41.6951 27.2633 41.8295 27.3977 42 27.5114C42.1705 27.6212 42.3674 27.7178 42.5909 27.8011C42.8144 27.8807 43.053 27.9489 43.3068 28.0057L44.3523 28.2557C44.8598 28.3693 45.3258 28.5208 45.75 28.7102C46.1742 28.8996 46.5417 29.1326 46.8523 29.4091C47.1629 29.6856 47.4034 30.0114 47.5739 30.3864C47.7481 30.7614 47.8371 31.1913 47.8409 31.6761C47.8371 32.3883 47.6553 33.0057 47.2955 33.5284C46.9394 34.0473 46.4242 34.4508 45.75 34.7386C45.0795 35.0227 44.2708 35.1648 43.3239 35.1648C42.3845 35.1648 41.5663 35.0208 40.8693 34.733C40.1761 34.4451 39.6345 34.0189 39.2443 33.4545C38.858 32.8864 38.6553 32.1837 38.6364 31.3466H41.017C41.0436 31.7367 41.1553 32.0625 41.3523 32.3239C41.553 32.5814 41.8201 32.7765 42.1534 32.9091C42.4905 33.0379 42.8712 33.1023 43.2955 33.1023C43.7121 33.1023 44.0739 33.0417 44.3807 32.9205C44.6913 32.7992 44.9318 32.6307 45.1023 32.4148C45.2727 32.1989 45.358 31.9508 45.358 31.6705C45.358 31.4091 45.2803 31.1894 45.125 31.0114C44.9735 30.8333 44.75 30.6818 44.4545 30.5568C44.1629 30.4318 43.8049 30.3182 43.3807 30.2159L42.1136 29.8977C41.1326 29.6591 40.358 29.286 39.7898 28.7784C39.2216 28.2708 38.9394 27.5871 38.9432 26.7273C38.9394 26.0227 39.1269 25.4072 39.5057 24.8807C39.8883 24.3542 40.4129 23.9432 41.0795 23.6477C41.7462 23.3523 42.5038 23.2045 43.3523 23.2045C44.2159 23.2045 44.9697 23.3523 45.6136 23.6477C46.2614 23.9432 46.7652 24.3542 47.125 24.8807C47.4848 25.4072 47.6705 26.017 47.6818 26.7102H45.3239ZM49.4957 35V23.3636H57.3366V25.392H51.956V28.1648H56.9332V30.1932H51.956V32.9716H57.3594V35H49.4957ZM59.2926 35V23.3636H61.7528V32.9716H66.7415V35H59.2926ZM70.6733 35H68.0369L72.054 23.3636H75.2244L79.2358 35H76.5994L73.6847 26.0227H73.5938L70.6733 35ZM70.5085 30.4261H76.7358V32.3466H70.5085V30.4261ZM85.2955 23.3636H87.7273V31.4773C87.7273 32.2273 87.5587 32.8788 87.2216 33.4318C86.8883 33.9848 86.4242 34.411 85.8295 34.7102C85.2348 35.0095 84.5436 35.1591 83.7557 35.1591C83.0549 35.1591 82.4186 35.036 81.8466 34.7898C81.2784 34.5398 80.8277 34.161 80.4943 33.6534C80.161 33.142 79.9962 32.5 80 31.7273H82.4489C82.4564 32.0341 82.5189 32.2973 82.6364 32.517C82.7576 32.733 82.9223 32.8996 83.1307 33.017C83.3428 33.1307 83.5928 33.1875 83.8807 33.1875C84.1837 33.1875 84.4394 33.1231 84.6477 32.9943C84.8598 32.8617 85.0208 32.6686 85.1307 32.4148C85.2405 32.161 85.2955 31.8485 85.2955 31.4773V23.3636ZM93.8864 35H89.7614V23.3636H93.9205C95.0909 23.3636 96.0985 23.5966 96.9432 24.0625C97.7879 24.5246 98.4375 25.1894 98.892 26.0568C99.3504 26.9242 99.5795 27.9621 99.5795 29.1705C99.5795 30.3826 99.3504 31.4242 98.892 32.2955C98.4375 33.1667 97.7841 33.8352 96.9318 34.3011C96.0833 34.767 95.0682 35 93.8864 35ZM92.2216 32.892H93.7841C94.5114 32.892 95.1231 32.7633 95.6193 32.5057C96.1193 32.2443 96.4943 31.8409 96.7443 31.2955C96.9981 30.7462 97.125 30.0379 97.125 29.1705C97.125 28.3106 96.9981 27.608 96.7443 27.0625C96.4943 26.517 96.1212 26.1155 95.625 25.858C95.1288 25.6004 94.517 25.4716 93.7898 25.4716H92.2216V32.892ZM103.862 23.3636V35H101.402V23.3636H103.862ZM115.619 23.3636V35H113.494L108.432 27.6761H108.347V35H105.886V23.3636H108.045L113.068 30.6818H113.17V23.3636H115.619ZM117.652 23.3636H120.686L123.891 31.1818H124.027L127.232 23.3636H130.266V35H127.879V27.4261H127.783L124.771 34.9432H123.146L120.135 27.3977H120.038V35H117.652V23.3636ZM132.293 35V23.3636H140.134V25.392H134.753V28.1648H139.73V30.1932H134.753V32.9716H140.156V35H132.293ZM142.089 23.3636H145.124L148.328 31.1818H148.464L151.669 23.3636H154.703V35H152.317V27.4261H152.22L149.209 34.9432H147.584L144.572 27.3977H144.476V35H142.089V23.3636ZM156.73 35V23.3636H164.571V25.392H159.19V28.1648H164.168V30.1932H159.19V32.9716H164.594V35H156.73ZM166.084 25.392V23.3636H175.641V25.392H172.078V35H169.646V25.392H166.084ZM179.675 23.3636V35H177.214V23.3636H179.675Z" fill="white"/>
<g filter="url(#filter1_d_1_19)">
<path d="M12.4084 25.7464C12.3686 25.3454 12.1979 25.0339 11.8963 24.8118C11.5947 24.5897 11.1854 24.4787 10.6683 24.4787C10.317 24.4787 10.0204 24.5284 9.77841 24.6278C9.53646 24.724 9.35085 24.8582 9.22159 25.0305C9.09564 25.2029 9.03267 25.3984 9.03267 25.6172C9.02604 25.7995 9.06416 25.9586 9.14702 26.0945C9.23319 26.2304 9.35085 26.348 9.5 26.4474C9.64915 26.5436 9.8215 26.6281 10.017 26.701C10.2126 26.7706 10.4214 26.8303 10.6435 26.88L11.5582 27.0987C12.0024 27.1982 12.41 27.3307 12.7812 27.4964C13.1525 27.6622 13.474 27.866 13.7457 28.108C14.0175 28.3499 14.228 28.6349 14.3771 28.9631C14.5296 29.2912 14.6075 29.6674 14.6108 30.0916C14.6075 30.7147 14.4484 31.255 14.1335 31.7124C13.822 32.1664 13.3712 32.5194 12.7812 32.7713C12.1946 33.0199 11.487 33.1442 10.6584 33.1442C9.83641 33.1442 9.1205 33.0182 8.51065 32.7663C7.90412 32.5144 7.43016 32.1416 7.08878 31.6477C6.75071 31.1506 6.57339 30.5357 6.55682 29.8033H8.63991C8.66312 30.1446 8.76089 30.4297 8.93324 30.6584C9.1089 30.8838 9.34257 31.0545 9.63423 31.1705C9.92921 31.2831 10.2623 31.3395 10.6335 31.3395C10.9981 31.3395 11.3146 31.2865 11.5831 31.1804C11.8549 31.0743 12.0653 30.9268 12.2145 30.7379C12.3636 30.549 12.4382 30.3319 12.4382 30.0866C12.4382 29.858 12.3703 29.6657 12.2344 29.5099C12.1018 29.3542 11.9063 29.2216 11.6477 29.1122C11.3925 29.0028 11.0793 28.9034 10.7081 28.8139L9.59943 28.5355C8.741 28.3267 8.06321 28.0002 7.56605 27.5561C7.06889 27.112 6.82197 26.5137 6.82528 25.7614C6.82197 25.1449 6.98603 24.6063 7.31747 24.1456C7.65223 23.6849 8.11127 23.3253 8.6946 23.0668C9.27794 22.8082 9.94081 22.679 10.6832 22.679C11.4389 22.679 12.0985 22.8082 12.6619 23.0668C13.2287 23.3253 13.6695 23.6849 13.9844 24.1456C14.2992 24.6063 14.4616 25.1399 14.4716 25.7464H12.4084ZM16.0588 22.8182H18.7136L21.5176 29.6591H21.6369L24.4409 22.8182H27.0957V33H25.0076V26.3729H24.9231L22.2882 32.9503H20.8663L18.2314 26.348H18.1468V33H16.0588V22.8182Z" fill="white"/>
</g>
<rect x="4.5" y="16.5" width="26" height="22" stroke="white"/>
</g>
<defs>
<filter id="filter0_d_1_19" x="0" y="0" width="183.675" height="62" filterUnits="userSpaceOnUse" color-interpolation-filters="sRGB">
<feFlood flood-opacity="0" result="BackgroundImageFix"/>
<feColorMatrix in="SourceAlpha" type="matrix" values="0 0 0 0 0 0 0 0 0 0 0 0 0 0 0 0 0 0 127 0" result="hardAlpha"/>
<feOffset dy="4"/>
<feGaussianBlur stdDeviation="2"/>
<feComposite in2="hardAlpha" operator="out"/>
<feColorMatrix type="matrix" values="0 0 0 0 1 0 0 0 0 1 0 0 0 0 1 0 0 0 0.25 0"/>
<feBlend mode="normal" in2="BackgroundImageFix" result="effect1_dropShadow_1_19"/>
<feBlend mode="normal" in="SourceGraphic" in2="effect1_dropShadow_1_19" result="shape"/>
</filter>
<filter id="filter1_d_1_19" x="2.55682" y="22.679" width="28.5389" height="18.4652" filterUnits="userSpaceOnUse" color-interpolation-filters="sRGB">
<feFlood flood-opacity="0" result="BackgroundImageFix"/>
<feColorMatrix in="SourceAlpha" type="matrix" values="0 0 0 0 0 0 0 0 0 0 0 0 0 0 0 0 0 0 127 0" result="hardAlpha"/>
<feOffset dy="4"/>
<feGaussianBlur stdDeviation="2"/>
<feComposite in2="hardAlpha" operator="out"/>
<feColorMatrix type="matrix" values="0 0 0 0 1 0 0 0 0 1 0 0 0 0 1 0 0 0 0.25 0"/>
<feBlend mode="normal" in2="BackgroundImageFix" result="effect1_dropShadow_1_19"/>
<feBlend mode="normal" in="SourceGraphic" in2="effect1_dropShadow_1_19" result="shape"/>
</filter>
</defs>
</svg>
